<svg id="Optum" width="70px" height="20px" xmlns="http://www.w3.org/2000/svg" viewBox="0 0 68.99 20"><defs><style>.cls-1{fill:#ff612b;}</style></defs><path class="cls-1" d="M51.29,15.51V3.8H55l0,1.4a3.61,3.61,0,0,1,3.1-1.57,3.56,3.56,0,0,1,3.34,1.9A4,4,0,0,1,65,3.63C67.6,3.63,69,5.55,69,8v7.54H65.22v-7a1.61,1.61,0,1,0-3.19,0v7H58.25v-7a1.61,1.61,0,1,0-3.19,0v7ZM50,11.05c0,3-2.4,4.72-5.46,4.72s-5.46-1.7-5.46-4.72V3.8h3.8v7.14a1.66,1.66,0,1,0,3.32,0V3.8H50ZM38.08,6.82v-3H35v-3H31.18v10.5c0,2.91,1.72,4.37,4.5,4.37a6.5,6.5,0,0,0,2.4-.39v-3a4.9,4.9,0,0,1-1.44.24c-1,0-1.68-.46-1.68-1.53V6.82ZM26.4,9.65a2.75,2.75,0,1,1-5.48,0,2.74,2.74,0,1,1,5.48,0Zm-5.48,10.4V14.28a5.23,5.23,0,0,0,3.62,1.42,5.82,5.82,0,0,0,5.66-6,5.81,5.81,0,0,0-5.66-6,5.26,5.26,0,0,0-3.73,1.53l0-1.36H17.12V20.05ZM12,7.86a4,4,0,0,1-4,4.2,4,4,0,0,1-4-4.2A4,4,0,0,1,8,3.67,4,4,0,0,1,12,7.86ZM8,.05A7.82,7.82,0,1,0,8,15.68,7.82,7.82,0,1,0,8,.05Z"/></svg>